<?xml version="1.0" encoding="UTF-8"?>
<svg id="Calque_1" data-name="Calque 1" xmlns="http://www.w3.org/2000/svg" viewBox="0 0 24.76 41.63">
  <path d="m8.92,20.5c3.36,3.53,6.59,6.94,9.85,10.33,1.59,1.65,3.27,3.21,4.83,4.88,1.5,1.62,1.52,3.58.19,4.93-1.29,1.31-3.42,1.37-4.95-.09-4.73-4.51-9.39-9.1-14.07-13.66-1.16-1.13-2.35-2.25-3.46-3.43-1.77-1.88-1.76-3.63.09-5.46,4.98-4.91,10-9.78,15-14.67.77-.76,1.51-1.55,2.33-2.26,1.61-1.4,3.59-1.41,4.95-.09,1.3,1.26,1.32,3.21-.06,4.83-.83.98-1.81,1.84-2.72,2.75-3.9,3.87-7.81,7.73-11.71,11.6-.17.17-.31.38-.26.33h-.01Z"/>
</svg>