<?xml version="1.0" encoding="UTF-8"?>
<svg id="Calque_1" data-name="Calque 1" xmlns="http://www.w3.org/2000/svg" viewBox="0 0 72.07 72">
  <path d="m60.08,71.99v-1.56c0-8.96.01-17.91,0-26.87,0-3.72-2.3-6.74-5.61-7.46-.4-.09-.82-.12-1.24-.12-11.29,0-22.58-.02-33.87,0-3.6,0-6.48,2.22-7.16,5.44-.12.56-.13,1.16-.13,1.74v28.71c-5.83.21-10.75-3.29-11.74-8.81-.2-1.1-.25-2.24-.26-3.36C.05,43.79.16,27.87,0,11.96-.05,6.52,3.32.31,11.08.02,12.03-.02,12.98.02,14.06.02v16.89c0,3.91,3.14,7.06,7.06,7.07,7.83.02,15.66.02,23.5.02,4.57,0,7.41-2.79,7.44-7.38.03-4.92,0-9.83,0-14.75V.24c.39.24.58.31.72.44,5.95,5.28,11.9,10.56,17.84,15.85,1.02.91,1.45,2.09,1.45,3.46,0,13.25,0,26.5-.01,39.74,0,4.7-1.63,8.54-5.98,10.87-1.84.98-3.83,1.29-6.01,1.4h.01Z"/>
  <path d="m54.08,71.93H18.15c-.02-.36-.07-.71-.07-1.07v-27c0-1.61.23-1.87,1.88-1.87h32.37c1.48,0,1.74.3,1.75,2.05.02,5.25,0,10.5,0,15.75v12.14Z"/>
  <path d="m20.08.03h25.95c.02.41.05.77.05,1.13v14.62c0,1.94-.25,2.2-2.13,2.2h-21.99c-1.65,0-1.88-.22-1.88-1.87V.04h0Z"/>
</svg>